# xmcd CD database file
#
# Track frame offsets:
#	150
#	37715
#	83250
#	123755
#	160817
#	184380
#
# Disc length: 3009 seconds
#
# Revision: 0
# Processed by: cddbd v1.4PL0 Copyright (c) Steve Scherf et al.
# Submitted via: CDex 1.50beta9
#
DISCID=360bbf06
DTITLE=Cecil Taylor - The Complete Candid Recordings Of Cecil Taylor And Buell Neidlinger, Disc 4
DYEAR=1961
DGENRE=Jazz
TTITLE0=Jumpin' Punkins (Take 4)
TTITLE1=Things Ain't What They Used To Be (Take 1)
TTITLE2=Things Ain't What They Used To Be (Take 3)
TTITLE3=Jumpin' Punkins (Take 6)
TTITLE4=Cindy's Main Mood (Take 1)
TTITLE5=O.P. (Take 2)
EXTD=YEAR: 1961
EXTT0=
EXTT1=
EXTT2=
EXTT3=
EXTT4=
EXTT5=
PLAYORDER=
